<svg width="1200" height="630" viewBox="0 0 1200 630" fill="none" xmlns="http://www.w3.org/2000/svg" role="img" aria-labelledby="title desc">
  <title id="title">Aspire Brand Kit</title>
  <desc id="desc">Aspire logo, Brand Kit title, the short link https://aka.ms/aspire/brand, and badges for logos, colors, slides, and fonts.</desc>
  <defs>
    <linearGradient id="bg" x1="0" y1="0" x2="1200" y2="630" gradientUnits="userSpaceOnUse">
      <stop offset="0" stop-color="#F8F7FD" />
      <stop offset="1" stop-color="#F2F6FF" />
    </linearGradient>
    <radialGradient id="glow" cx="0" cy="0" r="1" gradientUnits="userSpaceOnUse" gradientTransform="translate(216 128) rotate(31.8) scale(270 190)">
      <stop stop-color="#7455DD" stop-opacity="0.22" />
      <stop offset="1" stop-color="#7455DD" stop-opacity="0" />
    </radialGradient>
  </defs>

  <rect width="1200" height="630" fill="url(#bg)" />
  <ellipse cx="216" cy="128" rx="270" ry="190" fill="url(#glow)" />
  <rect x="52" y="52" width="1096" height="526" rx="36" fill="#FFFFFF" />
  <rect x="52.75" y="52.75" width="1094.5" height="524.5" rx="35.25" stroke="#E2DCF8" stroke-width="1.5" />

  <rect x="96" y="96" width="286" height="286" rx="42" fill="#F8F5FF" />
  <rect x="96.75" y="96.75" width="284.5" height="284.5" rx="41.25" stroke="#E5DFFC" stroke-width="1.5" />

  <g transform="translate(125 125) scale(7.4)">
    <path d="M3.5 30C1.57 30 0 28.43 0 26.5C0 25.871 0.166 25.259 0.48 24.729L8.818 10.287L8.852 10.236L12.968 3.099C13.593 2.019 14.754 1.349 16 1.349C17.246 1.349 18.407 2.019 19.031 3.098L31.531 24.749C31.833 25.258 31.999 25.87 31.999 26.499C31.999 28.429 30.429 29.999 28.499 29.999L3.5 30Z" fill="#512BD4" />
    <path d="M25.33 18H16.99L16 16.28L13.13 11.31C13 11.09 12.82 10.9 12.58 10.77C11.87 10.35 10.95 10.6 10.53 11.32L14.7 4.10001C14.96 3.65001 15.44 3.35001 16 3.35001C16.56 3.35001 17.04 3.65001 17.3 4.10001L21.45 11.29L21.46 11.31L21.48 11.34L25.33 18Z" fill="#7455DD" />
    <path d="M30 26.5C30 27.33 29.33 28 28.5 28H20.17C21 28 21.67 27.33 21.67 26.5C21.67 26.23 21.59 25.97 21.47 25.75L17.3 18.53L16.99 18H25.33L29.8 25.75C29.93 25.97 30 26.23 30 26.5Z" fill="#9780E5" />
    <path d="M21.67 26.5C21.67 27.33 21 28 20.17 28H11.83C12.66 28 13.33 27.33 13.33 26.5C13.33 26.23 13.26 25.97 13.13 25.75C13.13 25.74 13.12 25.73 13.11 25.72L11.79 23.57L8.82004 18.72C8.55004 18.28 8.07004 18 7.54004 18H16.99L17.3 18.53L17.427 18.75L21.47 25.75C21.59 25.97 21.67 26.23 21.67 26.5Z" fill="#B9AAEE" />
    <path d="M13.33 26.5C13.33 27.33 12.66 28 11.83 28H3.5C2.67 28 2 27.33 2 26.5C2 26.23 2.07 25.97 2.2 25.75L6.24 18.75C6.51 18.29 7.01 18 7.54 18C8.07 18 8.55 18.28 8.82 18.72L11.79 23.57L13.11 25.72C13.12 25.73 13.13 25.74 13.13 25.75C13.26 25.97 13.33 26.23 13.33 26.5Z" fill="#DCD5F6" />
    <path d="M16.99 18H7.53999C7.00999 18 6.50999 18.29 6.23999 18.75L6.66999 18L10.49 11.39L10.53 11.33V11.32C10.95 10.6 11.87 10.35 12.58 10.77C12.82 10.9 13 11.09 13.13 11.31L16 16.28L16.99 18Z" fill="#9780E5" />
  </g>

  <text x="458" y="184" fill="#6558B6" font-family="Poppins, Segoe UI, sans-serif" font-size="24" font-weight="700" letter-spacing="0.32em">ASPIRE</text>
  <text x="458" y="302" fill="#1F1E33" font-family="Poppins, Segoe UI, sans-serif" font-size="96" font-weight="700">Brand Kit</text>
  <text x="458" y="366" fill="#5D5872" font-family="Poppins, Segoe UI, sans-serif" font-size="30" font-weight="500">https://aka.ms/aspire/brand</text>

  <g transform="translate(458 436)">
    <rect x="0" y="0" width="140" height="54" rx="27" fill="#F7F4FF" />
    <rect x="0.75" y="0.75" width="138.5" height="52.5" rx="26.25" stroke="#DDD4FA" stroke-width="1.5" />
    <text x="70" y="34" fill="#1F1E33" font-family="Poppins, Segoe UI, sans-serif" font-size="22" font-weight="700" text-anchor="middle">logos</text>

    <rect x="160" y="0" width="150" height="54" rx="27" fill="#F4F9FF" />
    <rect x="160.75" y="0.75" width="148.5" height="52.5" rx="26.25" stroke="#CFE1F5" stroke-width="1.5" />
    <text x="235" y="34" fill="#1F1E33" font-family="Poppins, Segoe UI, sans-serif" font-size="22" font-weight="700" text-anchor="middle">colors</text>

    <rect x="330" y="0" width="138" height="54" rx="27" fill="#F3FAFA" />
    <rect x="330.75" y="0.75" width="136.5" height="52.5" rx="26.25" stroke="#CFE7E8" stroke-width="1.5" />
    <text x="399" y="34" fill="#1F1E33" font-family="Poppins, Segoe UI, sans-serif" font-size="22" font-weight="700" text-anchor="middle">slides</text>

    <rect x="488" y="0" width="136" height="54" rx="27" fill="#FFF7F1" />
    <rect x="488.75" y="0.75" width="134.5" height="52.5" rx="26.25" stroke="#F2DFCF" stroke-width="1.5" />
    <text x="556" y="34" fill="#1F1E33" font-family="Poppins, Segoe UI, sans-serif" font-size="22" font-weight="700" text-anchor="middle">fonts</text>
  </g>
</svg>